<svg width="138" height="56" viewBox="0 0 138 56" fill="none" xmlns="http://www.w3.org/2000/svg">
<path d="M116.063 25.3115C114.996 26.5974 114.462 27.2402 114.462 28C114.462 28.7597 114.996 29.4026 116.063 30.6885L137.079 56L111.768 34.9844C110.482 33.9167 109.839 33.3828 109.079 33.3828C108.319 33.3828 107.677 33.9167 106.391 34.9844L81.0791 56L102.095 30.6885C103.162 29.4026 103.696 28.7597 103.696 28C103.696 27.2402 103.162 26.5974 102.095 25.3115L81.0791 0L103.435 25.207C104.613 26.5363 105.203 27.2013 105.203 28C105.203 28.7987 104.613 29.4638 103.435 30.793L81.0791 56L106.286 33.6445C107.615 32.4657 108.28 31.876 109.079 31.876C109.878 31.876 110.543 32.4656 111.872 33.6445L137.079 56L114.724 30.793C113.545 29.4638 112.955 28.7987 112.955 28C112.955 27.2013 113.545 26.5363 114.724 25.207L137.079 0L116.063 25.3115ZM14.5332 7.88574C17.7014 7.88575 20.3169 8.38327 22.3799 9.37793C24.4428 10.3357 25.9533 11.6252 26.9111 13.2461C27.8688 14.8301 28.3476 16.543 28.3477 18.3848H24.2588V17.998C24.0746 16.4508 23.3193 14.9403 21.9932 13.4668C20.667 11.9564 18.1803 11.2012 14.5332 11.2012C11.3282 11.2012 8.87821 11.8087 7.18359 13.0244C5.48914 14.24 4.64171 16.0085 4.6416 18.3291C4.64165 20.2815 5.32351 21.7742 6.68652 22.8057C8.04956 23.837 10.1678 24.6658 13.041 25.292L17.1855 26.1768C21.3482 27.0609 24.4059 28.3683 26.3584 30.0996C28.3108 31.8311 29.2871 34.2444 29.2871 37.3389C29.287 40.8384 28.0531 43.5097 25.585 45.3516C23.1167 47.1934 19.5615 48.1143 14.9199 48.1143C11.3834 48.1143 8.49131 47.5988 6.24414 46.5674C4.03385 45.5359 2.4312 44.1909 1.43652 42.5332C0.478811 40.8756 0.000112108 39.0704 0 37.1182H4.08887V37.2832C4.08891 38.02 4.30992 38.9418 4.75195 40.0469C5.23095 41.1519 6.26282 42.2018 7.84668 43.1963C9.4676 44.1909 11.8255 44.6885 14.9199 44.6885C18.3091 44.6885 20.9068 44.0621 22.7119 42.8096C24.5168 41.5571 25.4189 39.7332 25.4189 37.3389C25.4189 35.2759 24.7003 33.6733 23.2637 32.5312C21.8269 31.3893 19.5611 30.4863 16.4668 29.8232L12.3232 28.9395C8.38161 28.129 5.47062 26.895 3.5918 25.2373C1.71303 23.5796 0.773481 21.2762 0.773438 18.3291C0.773544 14.9401 1.95299 12.362 4.31055 10.5938C6.70511 8.78862 10.1125 7.88574 14.5332 7.88574ZM35.4248 47.3408H31.7783V19.1582H35.4248V47.3408ZM47.6816 27.4473C48.2342 28.2207 48.8607 28.6074 49.5605 28.6074C50.2971 28.6073 50.9417 28.2207 51.4941 27.4473L57.4072 19.1582H61.6621L52.71 31.1494C52.3416 31.6283 52.1572 32.1814 52.1572 32.8076C52.1573 33.3968 52.3418 33.9493 52.71 34.4648L62.2148 47.3408H57.7383L51.2734 38.2227C50.7577 37.4859 50.1491 37.136 49.4492 37.1729C48.7496 37.173 48.1237 37.5598 47.5713 38.333L41.1611 47.3408H36.8506L46.2998 34.6309C46.7049 34.0415 46.9072 33.4705 46.9072 32.918C46.9441 32.3655 46.7605 31.8311 46.3555 31.3154L37.3477 19.1582H41.8242L47.6816 27.4473ZM75.4541 8.65918C81.3483 8.65924 85.8609 10.3173 88.9922 13.6328C92.1602 16.9484 93.7441 21.7008 93.7441 27.8896C93.7441 34.1521 92.1603 38.9602 88.9922 42.3125C85.8609 45.6646 81.348 47.3408 75.4541 47.3408H66.2812C65.2498 47.3408 64.439 47.0454 63.8496 46.4561C63.2603 45.8667 62.9649 45.0566 62.9648 44.0254V11.9746C62.9649 10.9064 63.2603 10.0955 63.8496 9.54297C64.439 8.95373 65.2499 8.65918 66.2812 8.65918H75.4541ZM69.5967 12.085C68.7494 12.085 68.0675 12.3436 67.5518 12.8594C67.0731 13.3383 66.833 14.0015 66.833 14.8486V41.1514C66.833 41.9986 67.0729 42.6806 67.5518 43.1963C68.0675 43.6751 68.7495 43.915 69.5967 43.915H75.4541C80.0219 43.915 83.5218 42.5332 85.9531 39.7705C88.4213 37.0076 89.6552 33.047 89.6553 27.8896C89.6553 22.806 88.4212 18.9009 85.9531 16.1748C83.5218 13.4487 80.022 12.085 75.4541 12.085H69.5967ZM111.872 22.3555C110.543 23.5344 109.878 24.124 109.079 24.124C108.28 24.124 107.615 23.5343 106.286 22.3555L81.0791 0L106.391 21.0156C107.676 22.0833 108.319 22.6172 109.079 22.6172C109.839 22.6172 110.482 22.0833 111.768 21.0156L137.079 0L111.872 22.3555ZM35.6465 14.3506H31.667V9.10156H35.6465V14.3506Z" fill="white"/>
</svg>
