<svg width="20" height="20" viewBox="0 0 20 20" fill="none" xmlns="http://www.w3.org/2000/svg">
<path d="M9.71877 3.63733L13.4851 7.40367C14.0892 8.00777 13.6614 9.04081 12.807 9.04081H2.959C2.42914 9.04081 1.99981 9.47034 2 10.0002C2 10.5299 2.42933 10.959 2.959 10.959H12.807C13.6614 10.959 14.0892 11.9922 13.4851 12.5963L9.71877 16.3627C9.3443 16.7371 9.3443 17.3445 9.71877 17.719L9.71896 17.7192C10.0934 18.0936 10.7008 18.0936 11.0752 17.7192L18.1163 10.6781C18.4907 10.3037 18.4907 9.69632 18.1163 9.32185L11.0752 2.28085C10.7008 1.90638 10.0934 1.90638 9.71896 2.28085L9.71877 2.28104C9.3443 2.65551 9.3443 3.26287 9.71877 3.63733Z" fill="white"/>
</svg>
